# xmcd
#
# Track frame offsets: 
#        150
#        15298
#        29686
#        42969
#        57712
#        71830
#        86440
#        102162
#        114493
#        128059
#        142081
#        155908
#        169254
#        181724
#        196151
#        209092
#        223522
#        237683
#        251793
#        265188
#
# Disc length: 3702 seconds
#
# Revision: 1
# Processed by: cddbd v1.5.2PL0 Copyright (c) Steve Scherf et al.
# Submitted via: ExactAudioCopyFreeDBPlugin 1.0
#
DISCID=320e7414
DTITLE=Various Artist - Shout It Out Sister - The Great Female Blues 
DTITLE=Singers Disc 01
DYEAR=2006
DGENRE=Blues
TTITLE0=Mamie Smith - Crazy Blues
TTITLE1=Ma Rainey - See See Rider
TTITLE2=Alberta Hunter - Cake Walking Babies
TTITLE3=Trixie Smith - Freight Train Blues
TTITLE4=Bessie Smith - Young Woman's Blues
TTITLE5=Victoria Spivey - T.B. Blues
TTITLE6=Cleo Gibson - I've Got Ford Movements In My Hips
TTITLE7=Margaret Carter - I Want Plenty Of Grease In My Frying Pan
TTITLE8=Bertha 'Chippie' Hill - Leavenworth Blues
TTITLE9=Clara Smith - Ain't Got Nobody To Grind My Coffee
TTITLE10=Sippie Wallace - I'm A Mighty Tight Woman
TTITLE11=Mary Johnson - Death Cell Blues
TTITLE12=Connee Boswell - Mama Don't Allow
TTITLE13=Lil Johnson - Hot Nuts
TTITLE14=Barrelhouse Annie - If It Don't Fit (Don't Force It)
TTITLE15=Lil Armstrong - Bluer Than Blue
TTITLE16=Ethel Waters - Frankie And Johnny
TTITLE17=Adelaide Hall - That Old Feeling
TTITLE18=Ida Cox - Hard Time Blues
TTITLE19=Memphis Minnie - Me And My Chauffeur Blues
EXTD=
EXTT0=
EXTT1=
EXTT2=
EXTT3=
EXTT4=
EXTT5=
EXTT6=
EXTT7=
EXTT8=
EXTT9=
EXTT10=
EXTT11=
EXTT12=
EXTT13=
EXTT14=
EXTT15=
EXTT16=
EXTT17=
EXTT18=
EXTT19=
PLAYORDER=
